<svg width="881" height="460" viewBox="0 0 881 460" fill="none" xmlns="http://www.w3.org/2000/svg">
<g filter="url(#filter0_d_2533_8)">
<path d="M255.974 150.052C253.205 149.59 249.743 149.36 245.589 149.36C239.589 149.36 234.973 151.283 231.742 155.129C228.511 158.822 226.896 163.976 226.896 170.592V175.9H253.436C255.744 175.9 256.898 177.054 256.898 179.362V195.978C256.898 198.286 255.744 199.44 253.436 199.44H226.896V290.368C226.896 292.676 225.742 293.83 223.434 293.83H203.587C201.279 293.83 200.125 292.676 200.125 290.368V170.592C200.125 156.283 203.971 145.283 211.664 137.59C219.511 129.897 229.434 126.051 241.435 126.051C247.282 126.051 251.974 126.358 255.513 126.974C257.667 127.128 258.744 128.358 258.744 130.666V146.59C258.744 148.898 257.821 150.052 255.974 150.052Z" fill="url(#paint0_linear_2533_8)"/>
<path d="M370.521 242.135C370.521 244.289 369.367 245.366 367.059 245.366H296.901V251.828C296.901 258.751 299.055 264.059 303.363 267.752C307.824 271.29 313.825 273.06 321.364 273.06C327.98 273.06 333.826 272.137 338.903 270.29C343.981 268.444 348.981 265.829 353.904 262.444C354.673 261.982 355.366 261.751 355.981 261.751C357.058 261.751 357.904 262.213 358.52 263.136L367.982 275.829C368.597 276.445 368.905 277.137 368.905 277.906C368.905 279.137 368.367 280.06 367.29 280.676C353.904 291.292 338.288 296.6 320.441 296.6C311.363 296.6 302.978 294.984 295.285 291.753C287.746 288.368 281.592 283.291 276.822 276.521C272.207 269.752 269.899 261.444 269.899 251.597V218.826C269.899 208.056 272.284 199.132 277.053 192.055C281.823 184.977 288.054 179.823 295.747 176.592C303.44 173.207 311.748 171.515 320.671 171.515C329.595 171.515 337.826 173.207 345.365 176.592C352.904 179.823 358.981 184.977 363.597 192.055C368.213 199.132 370.521 208.056 370.521 218.826V242.135ZM344.442 218.595C344.442 210.594 342.211 204.671 337.749 200.824C333.288 196.978 327.595 195.055 320.671 195.055C313.44 195.055 307.671 196.978 303.363 200.824C299.055 204.517 296.901 210.44 296.901 218.595V224.595H344.442V218.595Z" fill="url(#paint1_linear_2533_8)"/>
<path d="M420.696 252.058C420.696 258.366 422.235 263.29 425.312 266.829C428.543 270.367 433.082 272.137 438.928 272.137L448.39 271.675C450.852 271.675 452.083 272.752 452.083 274.906V292.446C452.083 294.753 451.006 295.984 448.852 296.138C443.621 296.446 439.544 296.6 436.62 296.6C423.85 296.6 413.542 293.138 405.695 286.214C397.849 279.137 393.925 268.367 393.925 253.905V148.437C393.925 146.283 395.079 145.206 397.387 145.206H414.927C415.85 145.206 416.619 145.513 417.234 146.129C417.85 146.59 418.235 147.283 418.388 148.206L420.465 175.9H445.159C447.467 175.9 448.621 176.977 448.621 179.131V195.978C448.621 198.132 447.467 199.209 445.159 199.209H420.696V252.058Z" fill="url(#paint2_linear_2533_8)"/>
<path d="M559.19 283.676C547.035 292.292 533.419 296.6 518.341 296.6C502.34 296.6 489.724 292.369 480.493 283.907C471.261 275.444 466.646 264.136 466.646 249.981V217.902C466.646 203.748 471.261 192.516 480.493 184.208C489.724 175.746 502.263 171.515 518.11 171.515C531.65 171.515 544.266 175.207 555.959 182.593C557.036 183.208 557.574 184.131 557.574 185.362C557.574 185.977 557.344 186.67 556.882 187.439L547.881 201.286C547.112 202.363 546.189 202.901 545.112 202.901C544.343 202.901 543.65 202.671 543.035 202.209C535.342 197.747 527.265 195.516 518.803 195.516C510.648 195.516 504.34 197.44 499.878 201.286C495.571 205.132 493.417 210.671 493.417 217.902V250.212C493.417 257.29 495.571 262.828 499.878 266.829C504.34 270.675 510.571 272.598 518.572 272.598C527.957 272.598 536.881 269.829 545.343 264.29C546.266 263.828 547.035 263.598 547.651 263.598C548.728 263.598 549.574 264.136 550.189 265.213L559.882 279.06C560.344 279.983 560.575 280.753 560.575 281.368C560.575 282.137 560.113 282.906 559.19 283.676Z" fill="url(#paint3_linear_2533_8)"/>
<path d="M606.427 175.438C613.966 172.823 622.274 171.515 631.351 171.515C646.429 171.515 658.584 175.823 667.815 184.439C677.046 192.901 681.662 205.979 681.662 223.672V331.526C681.662 333.834 679.813 333.949 677.659 333.949H658.269C655.962 333.949 654.891 333.834 654.891 331.526V224.364C654.891 213.748 652.737 206.286 648.429 201.978C644.121 197.67 637.505 195.516 628.582 195.516C619.35 195.516 611.965 196.901 606.427 199.671V290.368C606.427 292.676 605.273 293.83 602.965 293.83H583.117C580.81 293.83 579.656 292.676 579.656 290.368V132.282C579.656 129.974 580.81 128.82 583.117 128.82H602.965C605.273 128.82 606.427 129.974 606.427 132.282V175.438Z" fill="url(#paint4_linear_2533_8)"/>
<path d="M557.524 312.431C559.766 310.888 562.62 310.116 566.084 310.116C568.909 310.116 571.121 310.859 572.723 312.344C574.353 313.799 575.168 316.012 575.168 318.982V331.735C575.168 332.084 575.008 332.332 574.688 332.477C573.465 332.856 572.068 333.161 570.495 333.394C568.952 333.656 567.424 333.787 565.91 333.787C563.085 333.787 560.756 333.205 558.922 332.04C557.088 330.876 556.17 329.027 556.17 326.494C556.17 324.194 557.029 322.461 558.747 321.297C560.494 320.103 562.823 319.506 565.735 319.506C566.9 319.506 568.355 319.623 570.102 319.855V319.026C570.102 317.453 569.767 316.332 569.098 315.663C568.457 314.964 567.336 314.615 565.735 314.615C564.687 314.615 563.668 314.746 562.678 315.008C561.717 315.241 560.873 315.575 560.145 316.012C559.999 316.1 559.868 316.143 559.752 316.143C559.548 316.143 559.388 316.041 559.271 315.838L557.524 313.173C557.32 312.853 557.32 312.606 557.524 312.431ZM561.28 326.45C561.28 327.44 561.702 328.183 562.547 328.678C563.391 329.143 564.512 329.376 565.91 329.376C567.249 329.376 568.647 329.202 570.102 328.852V323.917C568.53 323.684 567.118 323.568 565.866 323.568C562.809 323.568 561.28 324.529 561.28 326.45Z" fill="url(#paint5_linear_2533_8)"/>
<path d="M590.041 333.656C589.284 333.744 588.454 333.787 587.551 333.787C585.222 333.787 583.417 333.045 582.136 331.56C580.884 330.075 580.258 327.993 580.258 325.315V302.692C580.258 302.255 580.476 302.037 580.913 302.037H584.669C585.106 302.037 585.324 302.255 585.324 302.692V325.14C585.324 326.567 585.557 327.6 586.023 328.241C586.489 328.852 587.216 329.158 588.206 329.158C588.556 329.158 589.109 329.129 589.866 329.071C590.303 329.071 590.521 329.289 590.521 329.726V332.958C590.521 333.394 590.361 333.627 590.041 333.656Z" fill="url(#paint6_linear_2533_8)"/>
<path d="M598.633 311.077C600.147 310.437 601.719 310.116 603.35 310.116C605.184 310.116 606.829 310.495 608.285 311.252C609.74 312.009 610.876 313.086 611.691 314.484C612.506 315.881 612.914 317.512 612.914 319.375V324.179C612.914 327.353 611.997 329.755 610.163 331.385C608.328 332.987 605.897 333.787 602.869 333.787C601.442 333.787 599.943 333.642 598.371 333.351C596.799 333.089 595.372 332.71 594.091 332.215C593.741 332.099 593.567 331.851 593.567 331.473V302.692C593.567 302.255 593.785 302.037 594.222 302.037H597.978C598.414 302.037 598.633 302.255 598.633 302.692V311.077ZM602.738 329.245C604.398 329.245 605.65 328.852 606.494 328.066C607.338 327.28 607.761 325.999 607.761 324.223V319.375C607.761 316.201 606.116 314.615 602.825 314.615C601.224 314.615 599.827 314.993 598.633 315.75V328.634C599.623 329.042 600.991 329.245 602.738 329.245Z" fill="url(#paint7_linear_2533_8)"/>
<path d="M617.448 312.431C619.69 310.888 622.543 310.116 626.008 310.116C628.832 310.116 631.045 310.859 632.646 312.344C634.277 313.799 635.092 316.012 635.092 318.982V331.735C635.092 332.084 634.932 332.332 634.611 332.477C633.389 332.856 631.991 333.161 630.419 333.394C628.876 333.656 627.347 333.787 625.833 333.787C623.009 333.787 620.679 333.205 618.845 332.04C617.011 330.876 616.094 329.027 616.094 326.494C616.094 324.194 616.953 322.461 618.67 321.297C620.417 320.103 622.747 319.506 625.658 319.506C626.823 319.506 628.279 319.623 630.026 319.855V319.026C630.026 317.453 629.691 316.332 629.021 315.663C628.381 314.964 627.26 314.615 625.658 314.615C624.61 314.615 623.591 314.746 622.601 315.008C621.64 315.241 620.796 315.575 620.068 316.012C619.922 316.1 619.791 316.143 619.675 316.143C619.471 316.143 619.311 316.041 619.195 315.838L617.448 313.173C617.244 312.853 617.244 312.606 617.448 312.431ZM621.204 326.45C621.204 327.44 621.626 328.183 622.47 328.678C623.314 329.143 624.435 329.376 625.833 329.376C627.172 329.376 628.57 329.202 630.026 328.852V323.917C628.453 323.684 627.041 323.568 625.789 323.568C622.732 323.568 621.204 324.529 621.204 326.45Z" fill="url(#paint8_linear_2533_8)"/>
<path d="M645.728 304.701C645.728 305.516 645.451 306.2 644.898 306.753C644.374 307.307 643.704 307.583 642.889 307.583C642.074 307.583 641.389 307.307 640.836 306.753C640.283 306.2 640.006 305.516 640.006 304.701C640.006 303.885 640.283 303.216 640.836 302.692C641.389 302.139 642.074 301.862 642.889 301.862C643.733 301.862 644.417 302.124 644.942 302.648C645.466 303.172 645.728 303.856 645.728 304.701ZM640.967 333.263C640.531 333.263 640.312 333.045 640.312 332.608V311.252C640.312 310.844 640.531 310.64 640.967 310.64H644.767C645.174 310.64 645.378 310.844 645.378 311.252V332.608C645.378 333.045 645.174 333.263 644.767 333.263H640.967Z" fill="url(#paint9_linear_2533_8)"/>
</g>
<g opacity="0.25" clip-path="url(#clip0_2533_8)">
<g filter="url(#filter1_f_2533_8)">
<circle cx="0.893311" r="286.402" fill="#00A9E4"/>
</g>
<g filter="url(#filter2_f_2533_8)">
<circle cx="0.893311" cy="460" r="286.402" fill="#00A9E4"/>
</g>
<g filter="url(#filter3_f_2533_8)">
<circle cx="880.893" r="286.402" fill="#00A9E4"/>
</g>
<g filter="url(#filter4_f_2533_8)">
<circle cx="880.893" cy="460" r="286.402" fill="#00A9E4"/>
</g>
</g>
<defs>
<filter id="filter0_d_2533_8" x="195.125" y="121.051" width="511.537" height="237.899" filterUnits="userSpaceOnUse" color-interpolation-filters="sRGB">
<feFlood flood-opacity="0" result="BackgroundImageFix"/>
<feColorMatrix in="SourceAlpha" type="matrix" values="0 0 0 0 0 0 0 0 0 0 0 0 0 0 0 0 0 0 127 0" result="hardAlpha"/>
<feOffset dx="10" dy="10"/>
<feGaussianBlur stdDeviation="7.5"/>
<feComposite in2="hardAlpha" operator="out"/>
<feColorMatrix type="matrix" values="0 0 0 0 0 0 0 0 0 0.311834 0 0 0 0 0.516667 0 0 0 0.15 0"/>
<feBlend mode="normal" in2="BackgroundImageFix" result="effect1_dropShadow_2533_8"/>
<feBlend mode="normal" in="SourceGraphic" in2="effect1_dropShadow_2533_8" result="shape"/>
</filter>
<filter id="filter1_f_2533_8" x="-685.509" y="-686.402" width="1372.8" height="1372.8" filterUnits="userSpaceOnUse" color-interpolation-filters="sRGB">
<feFlood flood-opacity="0" result="BackgroundImageFix"/>
<feBlend mode="normal" in="SourceGraphic" in2="BackgroundImageFix" result="shape"/>
<feGaussianBlur stdDeviation="200" result="effect1_foregroundBlur_2533_8"/>
</filter>
<filter id="filter2_f_2533_8" x="-685.509" y="-226.402" width="1372.8" height="1372.8" filterUnits="userSpaceOnUse" color-interpolation-filters="sRGB">
<feFlood flood-opacity="0" result="BackgroundImageFix"/>
<feBlend mode="normal" in="SourceGraphic" in2="BackgroundImageFix" result="shape"/>
<feGaussianBlur stdDeviation="200" result="effect1_foregroundBlur_2533_8"/>
</filter>
<filter id="filter3_f_2533_8" x="194.491" y="-686.402" width="1372.8" height="1372.8" filterUnits="userSpaceOnUse" color-interpolation-filters="sRGB">
<feFlood flood-opacity="0" result="BackgroundImageFix"/>
<feBlend mode="normal" in="SourceGraphic" in2="BackgroundImageFix" result="shape"/>
<feGaussianBlur stdDeviation="200" result="effect1_foregroundBlur_2533_8"/>
</filter>
<filter id="filter4_f_2533_8" x="194.491" y="-226.402" width="1372.8" height="1372.8" filterUnits="userSpaceOnUse" color-interpolation-filters="sRGB">
<feFlood flood-opacity="0" result="BackgroundImageFix"/>
<feBlend mode="normal" in="SourceGraphic" in2="BackgroundImageFix" result="shape"/>
<feGaussianBlur stdDeviation="200" result="effect1_foregroundBlur_2533_8"/>
</filter>
<linearGradient id="paint0_linear_2533_8" x1="184.099" y1="207.269" x2="696.407" y2="207.269" gradientUnits="userSpaceOnUse">
<stop stop-color="#1D85C7"/>
<stop offset="1" stop-color="#02A9E4"/>
</linearGradient>
<linearGradient id="paint1_linear_2533_8" x1="184.099" y1="207.269" x2="696.407" y2="207.269" gradientUnits="userSpaceOnUse">
<stop stop-color="#1D85C7"/>
<stop offset="1" stop-color="#02A9E4"/>
</linearGradient>
<linearGradient id="paint2_linear_2533_8" x1="184.099" y1="207.269" x2="696.407" y2="207.269" gradientUnits="userSpaceOnUse">
<stop stop-color="#1D85C7"/>
<stop offset="1" stop-color="#02A9E4"/>
</linearGradient>
<linearGradient id="paint3_linear_2533_8" x1="184.099" y1="207.269" x2="696.407" y2="207.269" gradientUnits="userSpaceOnUse">
<stop stop-color="#1D85C7"/>
<stop offset="1" stop-color="#02A9E4"/>
</linearGradient>
<linearGradient id="paint4_linear_2533_8" x1="184.099" y1="207.269" x2="696.407" y2="207.269" gradientUnits="userSpaceOnUse">
<stop stop-color="#1D85C7"/>
<stop offset="1" stop-color="#02A9E4"/>
</linearGradient>
<linearGradient id="paint5_linear_2533_8" x1="553.068" y1="316.882" x2="650.017" y2="316.882" gradientUnits="userSpaceOnUse">
<stop stop-color="#1D85C7"/>
<stop offset="1" stop-color="#02A9E4"/>
</linearGradient>
<linearGradient id="paint6_linear_2533_8" x1="553.068" y1="316.882" x2="650.017" y2="316.882" gradientUnits="userSpaceOnUse">
<stop stop-color="#1D85C7"/>
<stop offset="1" stop-color="#02A9E4"/>
</linearGradient>
<linearGradient id="paint7_linear_2533_8" x1="553.068" y1="316.882" x2="650.017" y2="316.882" gradientUnits="userSpaceOnUse">
<stop stop-color="#1D85C7"/>
<stop offset="1" stop-color="#02A9E4"/>
</linearGradient>
<linearGradient id="paint8_linear_2533_8" x1="553.068" y1="316.882" x2="650.017" y2="316.882" gradientUnits="userSpaceOnUse">
<stop stop-color="#1D85C7"/>
<stop offset="1" stop-color="#02A9E4"/>
</linearGradient>
<linearGradient id="paint9_linear_2533_8" x1="553.068" y1="316.882" x2="650.017" y2="316.882" gradientUnits="userSpaceOnUse">
<stop stop-color="#1D85C7"/>
<stop offset="1" stop-color="#02A9E4"/>
</linearGradient>
<clipPath id="clip0_2533_8">
<rect width="880" height="460" fill="white" transform="translate(0.893311)"/>
</clipPath>
</defs>
</svg>
